<svg width="100" height="100" viewBox="0 0 100 100" fill="none" xmlns="http://www.w3.org/2000/svg">
<rect width="100" height="100" rx="15" fill="black"/>
<path fill-rule="evenodd" clip-rule="evenodd" d="M19.3761 82.4495C18.4802 82.9975 17.4525 81.9698 18.0006 81.0739L41.2557 43.0883C41.3071 42.8949 41.4162 42.7164 41.5802 42.5801C41.7167 42.4158 41.8954 42.3063 42.0891 42.2549L80.074 19.0004C80.9701 18.452 81.9981 19.48 81.4496 20.376L58.1958 58.3616C58.1444 58.5551 58.0347 58.7342 57.8706 58.8705C57.7345 59.0343 57.5556 59.1435 57.3624 59.195L19.3761 82.4495ZM45.1033 55.3467C47.8687 58.112 52.3521 58.112 55.1174 55.3467C57.8828 52.5814 57.8827 48.0979 55.1174 45.3326C52.3521 42.5672 47.8687 42.5672 45.1033 45.3326C42.338 48.0979 42.338 52.5813 45.1033 55.3467Z" fill="white"/>
</svg>
